<svg
  width="24"
  height="24"
  viewBox="0 0 24 24"
  fill="none"
  xmlns="http://www.w3.org/2000/svg"
>
  <circle cx="12" cy="12" r="12" fill="#F8F8F8" />
  <g clip-path="url(#clip0_2701_1544)">
    <path
      d="M7.76262 13.4235C8.35508 13.4235 8.93108 13.226 9.40011 12.864L5.64788 9.11176C4.74274 10.2802 4.95668 11.9588 6.12514 12.864C6.59417 13.2178 7.17017 13.4153 7.76262 13.4153V13.4235Z"
      fill="#3E6957"
    />
    <path
      d="M18.9119 10.7492C18.9119 10.1568 18.7144 9.58078 18.3523 9.11176L14.6001 12.864C15.7686 13.7691 17.4472 13.5552 18.3523 12.3867C18.7144 11.9177 18.9119 11.3417 18.9119 10.7492Z"
      fill="#3E6957"
    />
    <path
      d="M20.8046 6.66791L19.1425 8.33008C20.4755 9.93465 20.2698 12.3127 18.6652 13.654C17.2581 14.8307 15.2257 14.8307 13.8186 13.654L12.0001 15.4725L10.1816 13.654C8.57698 14.987 6.19893 14.7813 4.85767 13.1767C3.68098 11.7696 3.68098 9.73717 4.85767 8.33008L4.01013 7.48254L3.20373 6.66791C2.22453 8.27248 1.71436 10.1157 1.71436 12C1.71436 17.6777 6.32236 22.2857 12.0001 22.2857C17.6778 22.2857 22.2858 17.6777 22.2858 12C22.294 10.1239 21.7674 8.27248 20.8046 6.66791Z"
      fill="#3E6957"
    />
    <path
      d="M19.4383 4.89873C15.5215 0.792674 9.01269 0.636332 4.90663 4.55313C4.7832 4.66833 4.668 4.78353 4.56103 4.89873C4.30594 5.17027 4.06731 5.45005 3.83691 5.73805L11.9997 13.9008L20.1624 5.73805C19.9402 5.44182 19.6934 5.16205 19.4383 4.89873ZM11.9997 3.05553C14.4024 3.05553 16.6406 3.98536 18.3274 5.67222L11.9997 12L5.67189 5.67222C7.35051 3.97713 9.59691 3.05553 11.9997 3.05553Z"
      fill="#3E6957"
    />
  </g>
  <defs>
    <clipPath id="clip0_2701_1544">
      <rect
        x="1.71436"
        y="1.71429"
        width="20.5714"
        height="20.5714"
        rx="10.2857"
        fill="white"
      />
    </clipPath>
  </defs>
</svg>
