<?xml version="1.0" standalone="no"?>
<!DOCTYPE svg PUBLIC "-//W3C//DTD SVG 20010904//EN"
 "http://www.w3.org/TR/2001/REC-SVG-20010904/DTD/svg10.dtd">
<svg version="1.0" xmlns="http://www.w3.org/2000/svg"
 width="300.000000pt" height="300.000000pt" viewBox="0 0 300.000000 300.000000"
 preserveAspectRatio="xMidYMid meet">
<metadata>
Created by potrace 1.14, written by Peter Selinger 2001-2017
</metadata>
<g transform="translate(0.000000,300.000000) scale(0.100000,-0.100000)"
fill="#000000" stroke="none">
<path d="M838 2314 c-92 -23 -166 -84 -209 -171 -35 -70 -33 -197 3 -268 14
-28 39 -63 54 -79 36 -36 122 -86 149 -86 47 -1 46 5 47 -396 1 -420 3 -437
65 -532 56 -84 118 -130 218 -164 37 -13 563 -18 625 -6 99 18 193 84 249 173
60 95 63 120 65 533 l1 376 45 11 c99 26 173 85 222 177 32 62 32 193 -2 262
-31 64 -92 123 -160 155 l-55 25 -637 1 c-432 0 -651 -3 -680 -11z"/>
</g>
</svg>
